<?xml version="1.0" encoding="UTF-8" standalone="no"?>
<!-- Created with Inkscape (http://www.inkscape.org/) -->

<svg
   width="512"
   height="512"
   viewBox="0 0 512 512"
   version="1.1"
   id="svg1"
   inkscape:version="1.4 (86a8ad7, 2024-10-11)"
   sodipodi:docname="icon.svg"
   inkscape:export-filename="icon.png"
   inkscape:export-xdpi="96"
   inkscape:export-ydpi="96"
   xmlns:inkscape="http://www.inkscape.org/namespaces/inkscape"
   xmlns:sodipodi="http://sodipodi.sourceforge.net/DTD/sodipodi-0.dtd"
   xmlns="http://www.w3.org/2000/svg"
   xmlns:svg="http://www.w3.org/2000/svg">
  <sodipodi:namedview
     id="namedview1"
     pagecolor="#ffffff"
     bordercolor="#000000"
     borderopacity="0.25"
     inkscape:showpageshadow="2"
     inkscape:pageopacity="0.0"
     inkscape:pagecheckerboard="0"
     inkscape:deskcolor="#d1d1d1"
     inkscape:document-units="px"
     inkscape:zoom="0.78808595"
     inkscape:cx="259.48946"
     inkscape:cy="399.06815"
     inkscape:window-width="1920"
     inkscape:window-height="1009"
     inkscape:window-x="-8"
     inkscape:window-y="-8"
     inkscape:window-maximized="1"
     inkscape:current-layer="layer1" />
  <defs
     id="defs1" />
  <g
     inkscape:label="Layer 1"
     inkscape:groupmode="layer"
     id="layer1">
    <path
       id="rect1"
       style="fill:#00aaff;fill-opacity:1;stroke-width:0.950703"
       d="m 336.80143,93.172138 c -16.22953,-16.229524 -42.36081,-16.229524 -58.59033,0 L 172.74853,198.6347 c -16.22951,16.22952 -16.22951,42.36081 0,58.59033 l 8.24843,8.24841 3.46964,3.46964 29.29516,29.29517 29.29516,-29.29517 6.51245,-6.51244 98.95013,-98.95013 c 16.2295,-16.22951 16.2295,-42.36079 0,-58.5903 z" />
    <path
       id="rect1-8"
       style="fill:#0055ff;fill-opacity:1;stroke-width:0.950703"
       d="m 180.71547,413.31099 c 16.22952,16.22953 42.36079,16.22953 58.59031,0 L 344.76835,307.84843 c 16.22952,-16.22951 16.22952,-42.36079 0,-58.59031 l -10.79916,-10.79915 -0.9189,-0.91892 -29.29516,-29.29516 -29.29517,29.29516 -4.90005,4.90007 -100.5625,100.5625 c -16.22952,16.22952 -16.22952,42.3608 0,58.59033 z" />
  </g>
</svg>
